<?xml version="1.0" standalone="no"?>
<!DOCTYPE svg PUBLIC "-//W3C//DTD SVG 20010904//EN"
 "http://www.w3.org/TR/2001/REC-SVG-20010904/DTD/svg10.dtd">
<svg version="1.0" xmlns="http://www.w3.org/2000/svg"
 width="300.000000pt" height="216.000000pt" viewBox="0 0 300.000000 216.000000"
 preserveAspectRatio="xMidYMid meet">
<metadata>
Created by potrace 1.10, written by Peter Selinger 2001-2011
</metadata>
<g transform="translate(0.000000,216.000000) scale(0.100000,-0.100000)"
fill="#000000" stroke="none">
<path d="M320 1160 c0 -856 2 -970 15 -970 13 0 15 114 15 970 0 856 -2 970
-15 970 -13 0 -15 -114 -15 -970z"/>
<path d="M390 1160 c0 -769 3 -970 13 -970 9 0 12 201 12 970 0 769 -3 970
-12 970 -10 0 -13 -201 -13 -970z"/>
<path d="M435 1230 l0 -900 43 0 42 0 0 900 0 900 -42 0 -43 0 0 -900z"/>
<path d="M548 1230 l-3 -900 28 0 27 0 0 900 0 900 -25 0 -25 0 -2 -900z"/>
<path d="M680 1230 c0 -850 1 -900 18 -900 16 0 17 50 17 900 0 850 -1 900
-17 900 -17 0 -18 -50 -18 -900z"/>
<path d="M770 1230 c0 -793 2 -900 15 -900 13 0 15 107 15 900 0 793 -2 900
-15 900 -13 0 -15 -107 -15 -900z"/>
<path d="M870 1230 c0 -793 2 -900 15 -900 13 0 15 107 15 900 0 793 -2 900
-15 900 -13 0 -15 -107 -15 -900z"/>
<path d="M950 1230 c0 -793 2 -900 15 -900 13 0 15 107 15 900 0 793 -2 900
-15 900 -13 0 -15 -107 -15 -900z"/>
<path d="M1020 2128 c0 -2 -1 -407 -3 -901 -1 -712 1 -897 11 -897 9 0 12 187
12 900 0 593 -3 900 -10 900 -5 0 -10 -1 -10 -2z"/>
<path d="M1120 1230 l0 -900 25 0 25 0 0 900 0 900 -25 0 -25 0 0 -900z"/>
<path d="M1230 1230 l0 -900 28 0 27 0 -3 900 -2 900 -25 0 -25 0 0 -900z"/>
<path d="M1310 1230 l0 -900 30 0 30 0 0 900 0 900 -30 0 -30 0 0 -900z"/>
<path d="M1450 1230 l0 -900 30 0 30 0 0 900 0 900 -30 0 -30 0 0 -900z"/>
<path d="M1530 1230 c0 -793 2 -900 15 -900 13 0 15 107 15 900 0 793 -2 900
-15 900 -13 0 -15 -107 -15 -900z"/>
<path d="M1590 1160 c0 -856 2 -970 15 -970 13 0 15 114 15 970 0 856 -2 970
-15 970 -13 0 -15 -114 -15 -970z"/>
<path d="M1640 1160 c0 -963 0 -970 20 -970 20 0 20 7 20 970 0 963 0 970 -20
970 -20 0 -20 -7 -20 -970z"/>
<path d="M1700 1230 c0 -793 2 -900 15 -900 13 0 15 107 15 900 0 793 -2 900
-15 900 -13 0 -15 -107 -15 -900z"/>
<path d="M1785 1230 l0 -900 43 0 42 0 0 900 0 900 -42 0 -43 0 0 -900z"/>
<path d="M1890 1231 c0 -851 1 -901 18 -901 16 0 17 49 15 897 -2 793 -4 898
-18 901 -13 3 -15 -97 -15 -897z"/>
<path d="M2030 1230 c0 -793 2 -900 15 -900 13 0 15 107 15 900 0 793 -2 900
-15 900 -13 0 -15 -107 -15 -900z"/>
<path d="M2090 1230 l0 -900 28 0 27 0 0 900 0 900 -27 0 -28 0 0 -900z"/>
<path d="M2168 1230 l-3 -900 33 0 32 0 0 900 0 900 -30 0 -30 0 -2 -900z"/>
<path d="M2280 1230 c0 -793 2 -900 15 -900 13 0 15 107 15 900 0 793 -2 900
-15 900 -13 0 -15 -107 -15 -900z"/>
<path d="M2420 1230 c0 -793 2 -900 15 -900 13 0 15 107 15 900 0 793 -2 900
-15 900 -13 0 -15 -107 -15 -900z"/>
<path d="M2480 1230 l0 -900 25 0 25 0 0 900 0 900 -25 0 -25 0 0 -900z"/>
<path d="M2580 1231 l0 -901 28 0 27 0 -2 897 -3 898 -25 3 -25 3 0 -900z"/>
<path d="M2660 1230 c0 -793 2 -900 15 -900 13 0 15 107 15 900 0 793 -2 900
-15 900 -13 0 -15 -107 -15 -900z"/>
<path d="M2740 1230 c0 -793 2 -900 15 -900 13 0 15 107 15 900 0 793 -2 900
-15 900 -13 0 -15 -107 -15 -900z"/>
<path d="M2840 1160 c0 -963 0 -970 20 -970 20 0 20 7 20 970 0 963 0 970 -20
970 -20 0 -20 -7 -20 -970z"/>
<path d="M2900 1160 c0 -963 0 -970 20 -970 20 0 20 7 20 970 0 963 0 970 -20
970 -20 0 -20 -7 -20 -970z"/>
<path d="M77 250 c-20 -16 -27 -30 -27 -56 0 -56 55 -94 89 -62 10 11 12 8 9
-11 -4 -28 -38 -53 -45 -33 -6 16 -56 16 -51 0 2 -6 16 -21 30 -31 23 -17 31
-18 57 -8 16 7 35 26 41 42 15 36 8 135 -11 154 -26 26 -63 28 -92 5z m65 -45
c9 -21 9 -29 -3 -41 -22 -21 -49 -7 -49 25 0 48 33 58 52 16z"/>
<path d="M653 260 c-29 -12 -41 -56 -20 -77 14 -14 14 -18 -4 -43 -16 -21 -18
-31 -10 -53 18 -46 91 -58 122 -20 18 21 15 71 -5 86 -16 12 -16 14 -2 26 48
40 -19 107 -81 81z m52 -55 c0 -30 -39 -27 -43 3 -3 20 0 23 20 20 15 -2 23
-10 23 -23z m5 -74 c13 -25 3 -51 -21 -51 -24 0 -40 29 -28 52 13 24 36 23 49
-1z"/>
<path d="M838 260 c-32 -19 -41 -49 -24 -75 13 -20 13 -25 1 -35 -20 -17 -19
-63 3 -83 30 -28 65 -30 95 -7 31 24 37 70 12 90 -11 9 -13 16 -5 24 14 14 13
61 -3 74 -20 17 -61 23 -79 12z m55 -42 c7 -21 -4 -38 -23 -38 -23 0 -34 16
-26 35 7 18 43 20 49 3z m-3 -83 c19 -23 8 -50 -20 -50 -16 0 -26 6 -28 18 -4
18 14 47 28 47 4 0 13 -7 20 -15z"/>
<path d="M1026 203 c-25 -37 -46 -78 -46 -90 0 -20 5 -23 44 -23 39 0 44 -2
39 -20 -4 -15 0 -20 16 -20 14 0 21 6 21 20 0 11 7 20 15 20 8 0 15 9 15 20 0
12 -7 20 -16 20 -13 0 -15 12 -13 68 3 93 -15 95 -75 5z m44 -38 c0 -31 -3
-35 -25 -35 -14 0 -25 3 -25 6 0 8 40 64 46 64 2 0 4 -16 4 -35z"/>
<path d="M1203 260 c-19 -8 -43 -38 -43 -54 0 -13 44 -5 55 11 15 20 45 11 45
-15 0 -10 -16 -34 -36 -53 -31 -30 -64 -78 -64 -94 0 -3 34 -5 76 -5 67 0 75
2 72 18 -3 13 -13 17 -46 16 -23 0 -42 1 -42 3 0 2 18 21 40 42 32 30 40 45
40 73 0 20 -6 40 -13 46 -19 16 -60 22 -84 12z"/>
<path d="M1375 245 c-21 -20 -25 -34 -25 -85 0 -90 29 -128 86 -114 67 17 73
190 7 215 -35 13 -41 12 -68 -16z m67 -50 c16 -63 -17 -145 -43 -104 -10 16
-12 100 -3 124 10 25 37 13 46 -20z"/>
<path d="M1953 260 c-12 -5 -27 -18 -33 -30 -9 -16 -8 -22 6 -27 10 -4 22 0
29 10 16 22 45 22 45 -1 0 -10 -10 -26 -22 -37 l-23 -19 25 -6 c20 -5 25 -12
25 -35 0 -34 -32 -48 -47 -21 -9 17 -48 22 -48 7 0 -17 35 -50 60 -56 56 -13
107 70 65 105 -11 9 -13 16 -5 24 18 18 11 64 -12 80 -25 18 -33 19 -65 6z"/>
<path d="M2133 260 c-19 -8 -43 -38 -43 -54 0 -3 11 -6 25 -6 16 0 25 6 25 16
0 22 44 14 48 -9 2 -10 -17 -40 -47 -73 -69 -76 -68 -84 19 -84 65 0 70 2 70
21 0 19 -4 21 -40 16 -22 -3 -40 -3 -40 0 0 3 18 23 40 44 31 30 40 46 40 73
0 18 -6 38 -13 44 -19 16 -60 22 -84 12z"/>
<path d="M2315 258 c-36 -20 -45 -45 -20 -55 9 -3 22 2 29 12 8 11 20 16 30
12 22 -9 20 -38 -4 -44 -27 -7 -25 -26 3 -38 27 -12 29 -44 4 -59 -14 -9 -21
-7 -31 7 -15 20 -46 23 -46 5 1 -33 47 -62 85 -52 50 13 74 82 35 106 -18 11
-18 14 -3 30 21 23 10 62 -22 76 -31 14 -35 14 -60 0z"/>
<path d="M2503 235 c-18 -18 -33 -41 -33 -50 0 -16 2 -16 25 -1 13 9 26 16 27
16 2 0 2 -34 0 -75 -3 -73 -3 -75 20 -75 23 0 23 1 22 107 -2 123 -9 131 -61
78z"/>
<path d="M2680 257 c-30 -15 -41 -73 -16 -83 12 -5 11 -9 -5 -25 -36 -36 -18
-86 38 -103 22 -7 62 8 75 28 13 19 9 63 -7 76 -12 10 -12 15 1 35 18 27 7 57
-26 75 -24 13 -29 12 -60 -3z m55 -52 c0 -23 -34 -33 -45 -14 -13 20 1 40 24
37 13 -2 21 -10 21 -23z m0 -90 c0 -25 -4 -30 -25 -30 -28 0 -39 27 -19 51 20
24 44 13 44 -21z"/>
<path d="M432 243 c3 -14 13 -18 49 -17 l46 0 -28 -55 c-15 -31 -31 -71 -34
-89 -6 -27 -4 -32 13 -32 14 0 22 13 35 58 9 31 27 74 41 95 14 21 26 42 26
47 0 6 -34 10 -76 10 -67 0 -75 -2 -72 -17z"/>
<path d="M1743 205 c-8 -46 -7 -55 6 -58 9 -1 23 1 32 7 29 16 51 0 47 -36 -2
-25 -8 -34 -26 -36 -13 -2 -25 3 -28 12 -8 20 -44 21 -44 2 0 -8 12 -24 27
-36 49 -38 113 -4 113 60 0 44 -24 70 -64 70 -21 0 -27 4 -24 17 3 14 12 17
46 15 37 -3 42 -1 42 17 0 19 -6 21 -58 21 l-59 0 -10 -55z"/>
</g>
</svg>
