<svg fill="#000000" width="15px" height="15px" viewBox="0 0 24 24" id="wheelchair-2" data-name="Flat Color" xmlns="http://www.w3.org/2000/svg" class="icon flat-color">
	<g id="SVGRepo_bgCarrier" stroke-width="0">
	</g>
	<g id="SVGRepo_tracerCarrier" stroke-linecap="round" stroke-linejoin="round">
	</g>
	<g id="SVGRepo_iconCarrier">
		<path id="secondary" d="M10,22H9.79A7,7,0,0,1,6.49,9a1,1,0,0,1,1.37.37,1,1,0,0,1-.37,1.36A5,5,0,0,0,5,14.85,5,5,0,0,0,9.85,20a4.82,4.82,0,0,0,3.26-1.09,1,1,0,0,1,1.24,1.57A7,7,0,0,1,10,22Z" style="fill: #2ca9bc;">
		</path>
		<path id="primary" d="M20,20H18.85l-.72-4.33a2,2,0,0,0-2-1.67H12V12h3a1,1,0,0,0,0-2H12V7.82a3,3,0,1,0-2,0V14a2,2,0,0,0,2,2h4.15l.72,4.33a2,2,0,0,0,2,1.67H20a1,1,0,0,0,0-2Z" style="fill: #000000;">
		</path>
	</g>
</svg>
